<svg xmlns="http://www.w3.org/2000/svg" width="734" height="734" viewBox="0 0 734 734"><rect width="100%" height="100%" fill="#DDDDDD"/><path fill="#999999" d="M271.74 217.025h21.19v113.51h-21.19v-49.61h-53.3v49.61h-21.2v-113.51h21.2v48.83h53.3zm58.72 63.98h36.58q0-3.77-1.06-7.11-1.06-3.33-3.18-5.85-2.12-2.51-5.38-3.96t-7.57-1.45q-8.4 0-13.23 4.79-4.83 4.78-6.16 13.58m49.45 11.69h-49.85q.48 6.2 2.2 10.72 1.73 4.51 4.56 7.46 2.82 2.94 6.71 4.39 3.88 1.45 8.59 1.45t8.13-1.1q3.41-1.09 5.96-2.43 2.55-1.33 4.48-2.43 1.92-1.1 3.73-1.1 2.43 0 3.61 1.8l5.57 7.07q-3.22 3.77-7.22 6.32t-8.36 4.08-8.87 2.16q-4.52.63-8.75.63-8.4 0-15.63-2.79-7.22-2.79-12.56-8.24-5.33-5.46-8.4-13.5-3.06-8.05-3.06-18.65 0-8.24 2.67-15.5t7.66-12.64q4.98-5.38 12.16-8.52 7.19-3.14 16.21-3.14 7.62 0 14.06 2.44 6.43 2.43 11.06 7.1 4.64 4.67 7.27 11.46 2.62 6.79 2.62 15.51 0 4.39-.94 5.92t-3.61 1.53m19.31-78.81h19.39v116.65h-19.39zm39.02 0h19.39v116.65h-19.39zm74.42 34.85q8.94 0 16.28 2.91 7.34 2.9 12.56 8.24t8.05 13.03 2.83 17.19q0 9.58-2.83 17.27-2.83 7.7-8.05 13.11-5.22 5.42-12.56 8.32-7.34 2.91-16.28 2.91-9.03 0-16.41-2.91-7.38-2.9-12.6-8.32-5.22-5.41-8.09-13.11-2.86-7.69-2.86-17.27 0-9.5 2.86-17.19 2.87-7.69 8.09-13.03t12.6-8.24q7.38-2.91 16.41-2.91m0 68.06q10.04 0 14.87-6.75t4.83-19.78-4.83-19.86-14.87-6.83q-10.21 0-15.12 6.87-4.9 6.87-4.9 19.82t4.9 19.74q4.91 6.79 15.12 6.79m-215.37 88.63h16.56l-35.24 113.51h-19.08l-24.8-77.56q-1.02-2.82-1.89-6.91-.47 1.97-.94 3.69-.47 1.73-1.02 3.22l-25.04 77.56h-19.16l-35.16-113.51h17.66q2.75 0 4.59 1.29 1.85 1.3 2.47 3.5l19.31 67.9q.63 2.51 1.22 5.46.59 2.94 1.22 6.16.63-3.3 1.37-6.2.75-2.91 1.61-5.42l22.3-67.9q.62-1.81 2.47-3.3 1.84-1.49 4.51-1.49h6.2q2.75 0 4.48 1.33 1.72 1.34 2.59 3.46l22.21 67.9q1.65 4.87 2.99 11.23 1.02-6.21 2.27-11.23l19.31-67.9q.48-1.96 2.4-3.38 1.92-1.41 4.59-1.41m63.11 31.71q8.95 0 16.29 2.91 7.34 2.9 12.56 8.24t8.05 13.03 2.83 17.19q0 9.58-2.83 17.27-2.83 7.7-8.05 13.11-5.22 5.42-12.56 8.32-7.34 2.91-16.29 2.91-9.02 0-16.4-2.91-7.38-2.9-12.6-8.32-5.22-5.41-8.09-13.11-2.86-7.69-2.86-17.27 0-9.5 2.86-17.19 2.87-7.69 8.09-13.03t12.6-8.24q7.38-2.91 16.4-2.91m0 68.06q10.05 0 14.88-6.75t4.83-19.78-4.83-19.86-14.88-6.83q-10.2 0-15.11 6.87-4.9 6.87-4.9 19.82t4.9 19.74q4.91 6.79 15.11 6.79m71.68-61.93 1.17 9.1q3.77-7.22 8.95-11.34t12.25-4.12q5.57 0 8.95 2.43l-1.26 14.52q-.39 1.42-1.14 2.01-.74.58-2 .58-1.18 0-3.49-.39-2.32-.39-4.52-.39-3.21 0-5.73.94-2.51.94-4.51 2.71t-3.53 4.28-2.87 5.73v49.61h-19.39v-80.54h11.38q2.99 0 4.17 1.06 1.17 1.06 1.57 3.81m41.68-40.98h19.39v116.65h-19.39zm89.33 92.79v-36.11q-3.3-4.01-7.18-5.66-3.89-1.64-8.36-1.64-4.4 0-7.93 1.64-3.53 1.65-6.04 4.99-2.52 3.33-3.85 8.48-1.34 5.14-1.34 12.13 0 7.06 1.14 11.97 1.14 4.9 3.26 8t5.18 4.48q3.06 1.37 6.83 1.37 6.05 0 10.28-2.51 4.24-2.51 8.01-7.14m0-92.79h19.39v116.65h-11.85q-3.85 0-4.87-3.53l-1.65-7.77q-4.86 5.57-11.18 9.02-6.32 3.46-14.72 3.46-6.6 0-12.09-2.75-5.5-2.75-9.46-7.97-3.97-5.22-6.12-12.91-2.16-7.69-2.16-17.58 0-8.95 2.43-16.65 2.43-7.69 6.99-13.34 4.55-5.65 10.91-8.83t14.29-3.18q6.75 0 11.54 2.12 4.78 2.12 8.55 5.73z"/></svg>